<svg viewBox="0 0 320 352" xmlns="http://www.w3.org/2000/svg">
<path d="M96.0,96.0 a1,1 0 0,0 -32.0,32.0" fill="black" stroke="none" />
<path d="M64.0,128.0 96.0,96.0 128.0,128.0 96.0,160.0 64.0,128.0" fill="red" stroke="none" />
<path d="M32.0,160.0 64.0,128.0 96.0,160.0 64.0,192.0 32.0,160.0" fill="black" stroke="none" />
<path d="M32.0,160.0 a1,1 0 0,0 32.0,32.0" fill="red" stroke="none" />
<path d="M160.0,160.0 a1,1 0 0,0 -32.0,-32.0" fill="red" stroke="none" />
<path d="M96.0,160.0 128.0,128.0 160.0,160.0 128.0,192.0 96.0,160.0" fill="black" stroke="none" />
<path d="M64.0,192.0 96.0,160.0 128.0,192.0 96.0,224.0 64.0,192.0" fill="red" stroke="none" />
<path d="M96.0,224.0 a1,1 0 0,0 32.0,-32.0" fill="black" stroke="none" />
<path d="M96.0,96.0 a1,1 0 0,0 -32.0,32.0" fill="none" stroke="black" />
<circle cx="87.46666666666667" cy="100.26666666666667" r="4" stroke="yellow" fill="none" />
<circle cx="87.46666666666667" cy="100.26666666666667" r="6" stroke="yellow" fill="none" />
<path d="M87.46666666666667,100.26666666666667 68.26666666666667,119.46666666666667" fill="none" stroke="white" />
<path d="M65.43823954192048,122.29509379141285 65.43823954192048,116.63823954192048 71.09509379141285,122.29509379141285 65.43823954192048,122.29509379141285" stroke="none" fill="white" />
<path d="M64.0,128.0 96.0,96.0 128.0,128.0 96.0,160.0 64.0,128.0" fill="none" stroke="black" />
<path d="M96.0,108.8 115.2,128.0 76.80000000000001,128.0 96.0,147.2" fill="none" stroke="white" />
<path d="M98.82842712474618,150.02842712474617 93.17157287525382,150.02842712474617 98.82842712474618,144.3715728752538 98.82842712474618,150.02842712474617" stroke="none" fill="white" />
<path d="M32.0,160.0 64.0,128.0 96.0,160.0 64.0,192.0 32.0,160.0" fill="none" stroke="black" />
<path d="M64.0,140.8 44.8,160.0 83.19999999999999,160.0 64.0,179.2" fill="none" stroke="white" />
<path d="M61.17157287525381,182.02842712474617 61.17157287525381,176.3715728752538 66.82842712474618,182.02842712474617 61.17157287525381,182.02842712474617" stroke="none" fill="white" />
<path d="M32.0,160.0 a1,1 0 0,0 32.0,32.0" fill="none" stroke="black" />
<path d="M36.266666666666666,168.53333333333336 55.46666666666667,187.73333333333335" fill="none" stroke="white" />
<path d="M58.29509379141286,190.56176045807953 52.63823954192048,190.56176045807953 58.29509379141286,184.90490620858716 58.29509379141286,190.56176045807953" stroke="none" fill="white" />
<path d="M160.0,160.0 a1,1 0 0,0 -32.0,-32.0" fill="none" stroke="black" />
<circle cx="136.53333333333333" cy="132.26666666666665" r="4" stroke="yellow" fill="none" />
<circle cx="136.53333333333333" cy="132.26666666666665" r="6" stroke="yellow" fill="none" />
<path d="M136.53333333333333,132.26666666666665 155.73333333333335,151.46666666666667" fill="none" stroke="white" />
<path d="M158.56176045807953,154.29509379141285 152.90490620858716,154.29509379141285 158.56176045807953,148.63823954192048 158.56176045807953,154.29509379141285" stroke="none" fill="white" />
<path d="M96.0,160.0 128.0,128.0 160.0,160.0 128.0,192.0 96.0,160.0" fill="none" stroke="black" />
<path d="M128.0,140.8 108.8,160.0 147.2,160.0 128.0,179.2" fill="none" stroke="white" />
<path d="M125.17157287525382,182.02842712474617 125.17157287525382,176.3715728752538 130.82842712474618,182.02842712474617 125.17157287525382,182.02842712474617" stroke="none" fill="white" />
<path d="M64.0,192.0 96.0,160.0 128.0,192.0 96.0,224.0 64.0,192.0" fill="none" stroke="black" />
<path d="M96.0,172.8 115.2,192.0 76.80000000000001,192.0 96.0,211.20000000000002" fill="none" stroke="white" />
<path d="M98.82842712474618,214.0284271247462 93.1715728752538,214.0284271247462 98.8284271247462,208.37157287525383 98.82842712474618,214.0284271247462" stroke="none" fill="white" />
<path d="M96.0,224.0 a1,1 0 0,0 32.0,-32.0" fill="none" stroke="black" />
<path d="M123.73333333333333,200.53333333333333 104.53333333333333,219.73333333333335" fill="none" stroke="white" />
<path d="M101.70490620858715,222.56176045807953 101.70490620858715,216.90490620858716 107.36176045807952,222.56176045807953 101.70490620858715,222.56176045807953" stroke="none" fill="white" />
<text stroke="black" x="64.0" y="96.0" font-size="10" text-anchor="middle" alignment-baseline="central">3,2</text>
<text fill="white" x="64.0" y="96.0" font-size="10" text-anchor="middle" alignment-baseline="central">3,2</text>
<text stroke="black" x="96.0" y="128.0" font-size="10" text-anchor="middle" alignment-baseline="central">4,3</text>
<text fill="white" x="96.0" y="128.0" font-size="10" text-anchor="middle" alignment-baseline="central">4,3</text>
<text stroke="black" x="224.0" y="192.0" font-size="10" text-anchor="middle" alignment-baseline="central">6,7</text>
<text fill="white" x="224.0" y="192.0" font-size="10" text-anchor="middle" alignment-baseline="central">6,7</text>
<text stroke="black" x="256.0" y="224.0" font-size="10" text-anchor="middle" alignment-baseline="central">7,8</text>
<text fill="white" x="256.0" y="224.0" font-size="10" text-anchor="middle" alignment-baseline="central">7,8</text>
<text stroke="black" x="160.0" y="160.0" font-size="10" text-anchor="middle" alignment-baseline="central">5,5</text>
<text fill="white" x="160.0" y="160.0" font-size="10" text-anchor="middle" alignment-baseline="central">5,5</text>
<text stroke="black" x="64.0" y="192.0" font-size="10" text-anchor="middle" alignment-baseline="central">6,2</text>
<text fill="white" x="64.0" y="192.0" font-size="10" text-anchor="middle" alignment-baseline="central">6,2</text>
<text stroke="black" x="288.0" y="128.0" font-size="10" text-anchor="middle" alignment-baseline="central">4,9</text>
<text fill="white" x="288.0" y="128.0" font-size="10" text-anchor="middle" alignment-baseline="central">4,9</text>
<text stroke="black" x="160.0" y="256.0" font-size="10" text-anchor="middle" alignment-baseline="central">8,5</text>
<text fill="white" x="160.0" y="256.0" font-size="10" text-anchor="middle" alignment-baseline="central">8,5</text>
<text stroke="black" x="96.0" y="224.0" font-size="10" text-anchor="middle" alignment-baseline="central">7,3</text>
<text fill="white" x="96.0" y="224.0" font-size="10" text-anchor="middle" alignment-baseline="central">7,3</text>
<text stroke="black" x="128.0" y="128.0" font-size="10" text-anchor="middle" alignment-baseline="central">4,4</text>
<text fill="white" x="128.0" y="128.0" font-size="10" text-anchor="middle" alignment-baseline="central">4,4</text>
<text stroke="black" x="224.0" y="96.0" font-size="10" text-anchor="middle" alignment-baseline="central">3,7</text>
<text fill="white" x="224.0" y="96.0" font-size="10" text-anchor="middle" alignment-baseline="central">3,7</text>
<text stroke="black" x="128.0" y="32.0" font-size="10" text-anchor="middle" alignment-baseline="central">1,4</text>
<text fill="white" x="128.0" y="32.0" font-size="10" text-anchor="middle" alignment-baseline="central">1,4</text>
<text stroke="black" x="192.0" y="256.0" font-size="10" text-anchor="middle" alignment-baseline="central">8,6</text>
<text fill="white" x="192.0" y="256.0" font-size="10" text-anchor="middle" alignment-baseline="central">8,6</text>
<text stroke="black" x="96.0" y="192.0" font-size="10" text-anchor="middle" alignment-baseline="central">6,3</text>
<text fill="white" x="96.0" y="192.0" font-size="10" text-anchor="middle" alignment-baseline="central">6,3</text>
<text stroke="black" x="128.0" y="224.0" font-size="10" text-anchor="middle" alignment-baseline="central">7,4</text>
<text fill="white" x="128.0" y="224.0" font-size="10" text-anchor="middle" alignment-baseline="central">7,4</text>
<text stroke="black" x="32.0" y="160.0" font-size="10" text-anchor="middle" alignment-baseline="central">5,1</text>
<text fill="white" x="32.0" y="160.0" font-size="10" text-anchor="middle" alignment-baseline="central">5,1</text>
<text stroke="black" x="160.0" y="128.0" font-size="10" text-anchor="middle" alignment-baseline="central">4,5</text>
<text fill="white" x="160.0" y="128.0" font-size="10" text-anchor="middle" alignment-baseline="central">4,5</text>
<text stroke="black" x="160.0" y="32.0" font-size="10" text-anchor="middle" alignment-baseline="central">1,5</text>
<text fill="white" x="160.0" y="32.0" font-size="10" text-anchor="middle" alignment-baseline="central">1,5</text>
<text stroke="black" x="224.0" y="256.0" font-size="10" text-anchor="middle" alignment-baseline="central">8,7</text>
<text fill="white" x="224.0" y="256.0" font-size="10" text-anchor="middle" alignment-baseline="central">8,7</text>
<text stroke="black" x="160.0" y="224.0" font-size="10" text-anchor="middle" alignment-baseline="central">7,5</text>
<text fill="white" x="160.0" y="224.0" font-size="10" text-anchor="middle" alignment-baseline="central">7,5</text>
<text stroke="black" x="192.0" y="64.0" font-size="10" text-anchor="middle" alignment-baseline="central">2,6</text>
<text fill="white" x="192.0" y="64.0" font-size="10" text-anchor="middle" alignment-baseline="central">2,6</text>
<text stroke="black" x="96.0" y="96.0" font-size="10" text-anchor="middle" alignment-baseline="central">3,3</text>
<text fill="white" x="96.0" y="96.0" font-size="10" text-anchor="middle" alignment-baseline="central">3,3</text>
<text stroke="black" x="192.0" y="160.0" font-size="10" text-anchor="middle" alignment-baseline="central">5,6</text>
<text fill="white" x="192.0" y="160.0" font-size="10" text-anchor="middle" alignment-baseline="central">5,6</text>
<text stroke="black" x="256.0" y="192.0" font-size="10" text-anchor="middle" alignment-baseline="central">6,8</text>
<text fill="white" x="256.0" y="192.0" font-size="10" text-anchor="middle" alignment-baseline="central">6,8</text>
<text stroke="black" x="224.0" y="64.0" font-size="10" text-anchor="middle" alignment-baseline="central">2,7</text>
<text fill="white" x="224.0" y="64.0" font-size="10" text-anchor="middle" alignment-baseline="central">2,7</text>
<text stroke="black" x="160.0" y="320.0" font-size="10" text-anchor="middle" alignment-baseline="central">10,5</text>
<text fill="white" x="160.0" y="320.0" font-size="10" text-anchor="middle" alignment-baseline="central">10,5</text>
<text stroke="black" x="128.0" y="96.0" font-size="10" text-anchor="middle" alignment-baseline="central">3,4</text>
<text fill="white" x="128.0" y="96.0" font-size="10" text-anchor="middle" alignment-baseline="central">3,4</text>
<text stroke="black" x="192.0" y="224.0" font-size="10" text-anchor="middle" alignment-baseline="central">7,6</text>
<text fill="white" x="192.0" y="224.0" font-size="10" text-anchor="middle" alignment-baseline="central">7,6</text>
<text stroke="black" x="96.0" y="256.0" font-size="10" text-anchor="middle" alignment-baseline="central">8,3</text>
<text fill="white" x="96.0" y="256.0" font-size="10" text-anchor="middle" alignment-baseline="central">8,3</text>
<text stroke="black" x="288.0" y="192.0" font-size="10" text-anchor="middle" alignment-baseline="central">6,9</text>
<text fill="white" x="288.0" y="192.0" font-size="10" text-anchor="middle" alignment-baseline="central">6,9</text>
<text stroke="black" x="224.0" y="160.0" font-size="10" text-anchor="middle" alignment-baseline="central">5,7</text>
<text fill="white" x="224.0" y="160.0" font-size="10" text-anchor="middle" alignment-baseline="central">5,7</text>
<text stroke="black" x="128.0" y="288.0" font-size="10" text-anchor="middle" alignment-baseline="central">9,4</text>
<text fill="white" x="128.0" y="288.0" font-size="10" text-anchor="middle" alignment-baseline="central">9,4</text>
<text stroke="black" x="128.0" y="192.0" font-size="10" text-anchor="middle" alignment-baseline="central">6,4</text>
<text fill="white" x="128.0" y="192.0" font-size="10" text-anchor="middle" alignment-baseline="central">6,4</text>
<text stroke="black" x="64.0" y="160.0" font-size="10" text-anchor="middle" alignment-baseline="central">5,2</text>
<text fill="white" x="64.0" y="160.0" font-size="10" text-anchor="middle" alignment-baseline="central">5,2</text>
<text stroke="black" x="160.0" y="96.0" font-size="10" text-anchor="middle" alignment-baseline="central">3,5</text>
<text fill="white" x="160.0" y="96.0" font-size="10" text-anchor="middle" alignment-baseline="central">3,5</text>
<text stroke="black" x="64.0" y="224.0" font-size="10" text-anchor="middle" alignment-baseline="central">7,2</text>
<text fill="white" x="64.0" y="224.0" font-size="10" text-anchor="middle" alignment-baseline="central">7,2</text>
<text stroke="black" x="192.0" y="128.0" font-size="10" text-anchor="middle" alignment-baseline="central">4,6</text>
<text fill="white" x="192.0" y="128.0" font-size="10" text-anchor="middle" alignment-baseline="central">4,6</text>
<text stroke="black" x="256.0" y="160.0" font-size="10" text-anchor="middle" alignment-baseline="central">5,8</text>
<text fill="white" x="256.0" y="160.0" font-size="10" text-anchor="middle" alignment-baseline="central">5,8</text>
<text stroke="black" x="160.0" y="288.0" font-size="10" text-anchor="middle" alignment-baseline="central">9,5</text>
<text fill="white" x="160.0" y="288.0" font-size="10" text-anchor="middle" alignment-baseline="central">9,5</text>
<text stroke="black" x="160.0" y="192.0" font-size="10" text-anchor="middle" alignment-baseline="central">6,5</text>
<text fill="white" x="160.0" y="192.0" font-size="10" text-anchor="middle" alignment-baseline="central">6,5</text>
<text stroke="black" x="192.0" y="96.0" font-size="10" text-anchor="middle" alignment-baseline="central">3,6</text>
<text fill="white" x="192.0" y="96.0" font-size="10" text-anchor="middle" alignment-baseline="central">3,6</text>
<text stroke="black" x="224.0" y="128.0" font-size="10" text-anchor="middle" alignment-baseline="central">4,7</text>
<text fill="white" x="224.0" y="128.0" font-size="10" text-anchor="middle" alignment-baseline="central">4,7</text>
<text stroke="black" x="128.0" y="64.0" font-size="10" text-anchor="middle" alignment-baseline="central">2,4</text>
<text fill="white" x="128.0" y="64.0" font-size="10" text-anchor="middle" alignment-baseline="central">2,4</text>
<text stroke="black" x="96.0" y="160.0" font-size="10" text-anchor="middle" alignment-baseline="central">5,3</text>
<text fill="white" x="96.0" y="160.0" font-size="10" text-anchor="middle" alignment-baseline="central">5,3</text>
<text stroke="black" x="288.0" y="160.0" font-size="10" text-anchor="middle" alignment-baseline="central">5,9</text>
<text fill="white" x="288.0" y="160.0" font-size="10" text-anchor="middle" alignment-baseline="central">5,9</text>
<text stroke="black" x="192.0" y="288.0" font-size="10" text-anchor="middle" alignment-baseline="central">9,6</text>
<text fill="white" x="192.0" y="288.0" font-size="10" text-anchor="middle" alignment-baseline="central">9,6</text>
<text stroke="black" x="192.0" y="192.0" font-size="10" text-anchor="middle" alignment-baseline="central">6,6</text>
<text fill="white" x="192.0" y="192.0" font-size="10" text-anchor="middle" alignment-baseline="central">6,6</text>
<text stroke="black" x="64.0" y="128.0" font-size="10" text-anchor="middle" alignment-baseline="central">4,2</text>
<text fill="white" x="64.0" y="128.0" font-size="10" text-anchor="middle" alignment-baseline="central">4,2</text>
<text stroke="black" x="160.0" y="64.0" font-size="10" text-anchor="middle" alignment-baseline="central">2,5</text>
<text fill="white" x="160.0" y="64.0" font-size="10" text-anchor="middle" alignment-baseline="central">2,5</text>
<text stroke="black" x="224.0" y="224.0" font-size="10" text-anchor="middle" alignment-baseline="central">7,7</text>
<text fill="white" x="224.0" y="224.0" font-size="10" text-anchor="middle" alignment-baseline="central">7,7</text>
<text stroke="black" x="128.0" y="160.0" font-size="10" text-anchor="middle" alignment-baseline="central">5,4</text>
<text fill="white" x="128.0" y="160.0" font-size="10" text-anchor="middle" alignment-baseline="central">5,4</text>
<text stroke="black" x="128.0" y="256.0" font-size="10" text-anchor="middle" alignment-baseline="central">8,4</text>
<text fill="white" x="128.0" y="256.0" font-size="10" text-anchor="middle" alignment-baseline="central">8,4</text>
<text stroke="black" x="32.0" y="192.0" font-size="10" text-anchor="middle" alignment-baseline="central">6,1</text>
<text fill="white" x="32.0" y="192.0" font-size="10" text-anchor="middle" alignment-baseline="central">6,1</text>
<text stroke="black" x="256.0" y="128.0" font-size="10" text-anchor="middle" alignment-baseline="central">4,8</text>
<text fill="white" x="256.0" y="128.0" font-size="10" text-anchor="middle" alignment-baseline="central">4,8</text>
<text stroke="white"  x="32.0" y="170.0" font-size="10" text-anchor="middle" alignment-baseline="central">X</text>
<text fill="black"  x="32.0" y="170.0" font-size="10" text-anchor="middle" alignment-baseline="central">X</text>
<text stroke="white"  x="64.0" y="202.0" font-size="10" text-anchor="middle" alignment-baseline="central">X</text>
<text fill="black"  x="64.0" y="202.0" font-size="10" text-anchor="middle" alignment-baseline="central">X</text>
<text stroke="white"  x="96.0" y="234.0" font-size="10" text-anchor="middle" alignment-baseline="central">X</text>
<text fill="black"  x="96.0" y="234.0" font-size="10" text-anchor="middle" alignment-baseline="central">X</text>
<rect fill="black" x="0" y="0" width="10" height="10" />
<text x="5" y="5" fill="white" font-size="10" text-anchor="middle" alignment-baseline="central">X</text>
<rect fill="red" x="0" y="12" width="10" height="10" />
<text x="5" y="17" fill="white" font-size="10" text-anchor="middle" alignment-baseline="central">Z</text>
</svg>
